<svg xmlns:xlink="http://www.w3.org/1999/xlink" width="48" height="49" viewBox="0 0 48 49" fill="none" xmlns="http://www.w3.org/2000/svg"><rect x="0.5" y="1" width="47" height="47" rx="7.5" fill="#FFFFFF"></rect><path d="M18.3859 38.7986L18.9176 35.4216L17.7333 35.3942H12.0781L16.0082 10.4751C16.0199 10.3989 16.0585 10.3295 16.1171 10.2795C16.1757 10.2295 16.2503 10.2022 16.3274 10.2026H25.8628C29.0283 10.2026 31.2129 10.8614 32.3535 12.1616C32.8883 12.7715 33.2288 13.4089 33.3935 14.1103C33.5663 14.8463 33.5693 15.7256 33.4006 16.7981L33.3884 16.8764V17.5636L33.9231 17.8665C34.3313 18.0733 34.6982 18.3531 35.0058 18.692C35.4632 19.2135 35.759 19.8763 35.8841 20.6621C36.0132 21.4703 35.9705 22.4319 35.759 23.5207C35.5151 24.7731 35.1206 25.8639 34.5879 26.7564C34.118 27.556 33.486 28.2485 32.7327 28.7895C32.0252 29.2917 31.1845 29.6729 30.234 29.9169C29.313 30.1568 28.2629 30.2778 27.1111 30.2778H26.369C25.8384 30.2778 25.323 30.4689 24.9184 30.8115C24.5144 31.1577 24.2463 31.6361 24.162 32.1615L24.1061 32.4654L23.1668 38.4174L23.1241 38.636C23.113 38.7051 23.0936 38.7397 23.0652 38.7631C23.0376 38.7856 23.0032 38.7982 22.9676 38.7986H18.3859Z" fill="#253B80"></path><path d="M34.43 16.9556C34.4015 17.1375 34.369 17.3236 34.3324 17.5147C33.0749 23.9709 28.7728 26.2012 23.2782 26.2012H20.4806C19.8087 26.2012 19.2425 26.6892 19.1378 27.352L17.7054 36.436L17.2998 39.011C17.2836 39.1131 17.2898 39.2176 17.3179 39.3171C17.346 39.4166 17.3953 39.5089 17.4624 39.5875C17.5296 39.6662 17.6129 39.7293 17.7068 39.7726C17.8007 39.816 17.9029 39.8384 18.0063 39.8385H22.9682C23.5558 39.8385 24.0549 39.4115 24.1474 38.8321L24.1962 38.58L25.1304 32.6514L25.1904 32.326C25.2819 31.7446 25.782 31.3176 26.3696 31.3176H27.1117C31.919 31.3176 35.6824 29.3658 36.7823 23.7178C37.2418 21.3583 37.0039 19.3882 35.7881 18.0026C35.4027 17.574 34.9425 17.2192 34.43 16.9556Z" fill="#179BD7"></path><path d="M33.1145 16.4312C32.7129 16.3151 32.3045 16.2244 31.8915 16.1598C31.0756 16.0344 30.2509 15.9742 29.4253 15.9799H21.9516C21.6671 15.9796 21.392 16.0812 21.1759 16.2661C20.9598 16.4511 20.817 16.7072 20.7734 16.9883L19.1834 27.0584L19.1377 27.3522C19.1872 27.0316 19.3499 26.7394 19.5962 26.5283C19.8425 26.3172 20.1562 26.2013 20.4806 26.2014H23.2782C28.7727 26.2014 33.0748 23.9701 34.3323 17.5149C34.3699 17.3238 34.4014 17.1377 34.4299 16.9558C34.0981 16.7818 33.7523 16.6359 33.3961 16.5197C33.3027 16.4887 33.2088 16.4592 33.1145 16.4312Z" fill="#222D65"></path><path d="M20.7732 16.9882C20.8165 16.707 20.9592 16.4508 21.1754 16.2659C21.3916 16.081 21.6669 15.9799 21.9514 15.9807H29.4252C30.3106 15.9807 31.1371 16.0387 31.8914 16.1607C32.4018 16.2409 32.9052 16.3609 33.3969 16.5195C33.7679 16.6425 34.1126 16.7879 34.4307 16.9556C34.8048 14.5698 34.4277 12.9453 33.1377 11.4743C31.7155 9.85492 29.1487 9.16162 25.8641 9.16162H16.3287C15.6578 9.16162 15.0855 9.64957 14.9818 10.3134L11.0101 35.4887C10.9916 35.6055 10.9986 35.725 11.0307 35.8389C11.0628 35.9528 11.1192 36.0584 11.196 36.1485C11.2728 36.2385 11.3682 36.3108 11.4756 36.3605C11.583 36.4101 11.6999 36.4359 11.8182 36.4361H17.7052L19.1833 27.0583L20.7732 16.9882Z" fill="#253B80"></path><rect x="0.5" y="1" width="47" height="47" rx="7.5" stroke="#E0E2D9" fill="none"></rect></svg>