<svg width="754" height="631" viewBox="0 0 754 631" fill="none" xmlns="http://www.w3.org/2000/svg">
<path d="M673.276 15.9209C709.926 -2.0239 709.926 -2.0239 728.408 2.56445C730.658 3.48926 732.575 4.53742 734.607 5.86914L736.709 7.1543C745.807 13.2709 750.235 22.606 752.666 33.0098C754.18 40.8164 753.956 48.7622 753.92 56.6816C753.917 57.9409 753.917 57.941 753.914 59.2256C753.857 74.9342 752.729 90.2933 750.607 105.869C750.466 106.915 750.466 106.915 750.321 107.982C749.011 117.662 747.621 127.328 746.183 136.989C745.675 140.409 745.179 143.83 744.689 147.252C744.433 149.02 744.177 150.788 743.92 152.557C743.813 153.309 743.706 154.061 743.596 154.836C743.001 158.849 742.152 162.72 741.126 166.643C740.525 169.222 740.106 171.804 739.693 174.42C738.636 180.977 737.2 187.432 735.723 193.904C731.181 213.832 727.003 233.837 722.82 253.843C720.164 266.538 717.463 279.218 714.607 291.869C713.952 294.787 713.297 297.705 712.643 300.623C712.401 301.701 712.401 301.701 712.154 302.8C705.039 333.073 705.039 333.074 700.338 363.769C699.429 372.269 697.554 380.555 695.607 388.869C695.439 389.603 695.27 390.336 695.097 391.092C690.274 411.77 683.537 433.061 673.607 451.869L672.237 454.518C665.14 468.194 657.546 481.313 648.607 493.869C648.206 494.435 647.804 495.001 647.39 495.584C641.996 503.119 636.095 510.222 630.033 517.223C629.036 518.374 628.044 519.53 627.057 520.689C622.229 526.304 617.094 531.575 611.857 536.807C610.971 537.693 610.084 538.578 609.17 539.491C603.241 545.365 597.25 550.81 590.607 555.869C589.065 557.139 587.524 558.41 585.982 559.682C572.632 570.282 558.406 579.435 543.607 587.869L541.321 589.173C507.217 608.376 469.32 621.224 430.607 626.869C429.742 626.998 428.877 627.127 427.985 627.26C413.101 629.422 398.417 630.265 383.427 630.315H377.662C374.9 630.321 372.139 630.344 369.377 630.367C352.8 630.416 336.914 628.796 320.607 625.869C319.492 625.67 318.377 625.471 317.229 625.266C274.345 617.534 231.591 601.568 195.358 577.051C193.511 575.804 191.649 574.579 189.787 573.354C164.465 556.513 140.222 534.949 121.607 510.869C120.661 509.709 119.712 508.552 118.76 507.396C85.5978 467.002 59.7264 412.503 56.4141 359.859C55.9964 354.246 54.7039 348.936 53.2998 343.503C50.9975 334.591 49.0328 325.605 47.0449 316.619C46.8336 315.667 46.6221 314.715 46.4043 313.733C42.316 295.302 38.3948 276.836 34.5127 258.36C32.0268 246.535 29.4867 234.726 26.8574 222.932C24.0225 210.156 21.5349 197.328 19.1611 184.46C17.8864 177.561 16.5972 170.677 15.0801 163.826C10.2499 141.805 7.70947 119.506 5.02539 97.1387C4.83207 95.5294 4.83196 95.5292 4.63477 93.8877C-2.26287 35.4529 -2.26281 35.4525 10.1348 16.6855C24.7639 -1.35833 43.2886 -0.879572 63.6074 6.86914L66.6074 7.96289C81.6166 13.7998 95.5584 22.3242 109.42 30.4316C110.021 30.7825 110.623 31.1336 111.242 31.4951C125.131 39.6165 138.549 48.429 151.938 57.3428C154.037 58.7388 156.14 60.1304 158.242 61.5215C168.525 68.3504 178.903 75.2533 188.376 83.1875C190.472 85.1263 190.472 85.1267 193.088 84.8223C195.995 83.7223 198.32 82.3307 200.92 80.6191C241.434 54.9697 288.025 38.6816 335.607 32.8691C336.289 32.7858 336.97 32.7021 337.672 32.6162C351.419 30.9784 365.02 30.5082 378.857 30.5566C379.888 30.5578 380.919 30.5594 381.98 30.5605C396.244 30.5922 410.165 30.9908 424.245 33.4678C426.545 33.8587 428.843 34.1693 431.158 34.4551C477.308 40.4037 524.021 59.1449 562.607 84.8691C565.669 84.5125 567.69 83.3207 570.154 81.5332C570.825 81.0521 571.496 80.5708 572.188 80.0752C572.904 79.5534 573.62 79.0317 574.357 78.4941C575.905 77.3853 577.453 76.2773 579.002 75.1699C579.78 74.6113 580.558 74.0521 581.359 73.4766C603.738 57.4667 627.007 42.7972 650.605 28.6689C652.53 27.5148 654.452 26.3547 656.37 25.1885C661.236 22.2345 666.125 19.4463 671.232 16.9316C671.907 16.5981 672.581 16.2645 673.276 15.9209ZM251.107 190.869C211.619 190.869 179.607 226.686 179.607 270.869C179.607 315.052 211.619 350.869 251.107 350.869C290.596 350.869 322.607 315.052 322.607 270.869C322.607 226.686 290.596 190.869 251.107 190.869ZM502.107 190.869C462.619 190.869 430.607 226.686 430.607 270.869C430.607 315.052 462.619 350.869 502.107 350.869C541.596 350.869 573.607 315.052 573.607 270.869C573.607 226.686 541.596 190.869 502.107 190.869Z" fill="#2CC272"/>
</svg>
