<svg width="112" height="112" viewBox="0 0 112 112" fill="none" xmlns="http://www.w3.org/2000/svg">
<path d="M63.3523 10.7598C63.3523 18.3193 56.3212 55.3904 56.3212 55.3904C56.3212 55.3904 49.29 18.3193 49.29 10.7598C49.29 3.20027 52.4363 -6.10352e-05 56.3212 -6.10352e-05C60.206 -6.10352e-05 63.3523 3.19426 63.3523 10.7598Z" fill="#2BC177"/>
<path d="M39.851 12.9634C43.6338 19.5141 56.0809 55.1322 56.0809 55.1322C56.0809 55.1322 31.457 26.5393 27.6742 19.9945C23.8915 13.4437 25.0203 9.10255 28.3827 7.16314C31.7452 5.22372 36.0682 6.41858 39.851 12.9634Z" fill="#2BC177"/>
<path d="M20.601 26.6173C27.1518 30.4001 55.7387 55.0241 55.7387 55.0241C55.7387 55.0241 20.1207 42.577 13.5699 38.7942C7.01909 35.0115 5.82412 30.6883 7.76954 27.3259C9.70896 23.9634 14.0502 22.8346 20.601 26.6173Z" fill="#2BC177"/>
<path d="M10.7598 48.0711C18.3193 48.0711 55.3905 55.1022 55.3905 55.1022C55.3905 55.1022 18.3193 62.1334 10.7598 62.1334C3.20029 62.1334 0 58.9871 0 55.1022C0 51.2174 3.19429 48.0711 10.7598 48.0711Z" fill="#2BC177"/>
<path d="M12.9576 71.5722C19.5084 67.7895 55.1264 55.3423 55.1264 55.3423C55.1264 55.3423 26.5395 79.9663 19.9887 83.7491C13.4379 87.5319 9.09667 86.403 7.15726 83.0406C5.21784 79.6781 6.41281 75.355 12.9576 71.5722Z" fill="#2BC177"/>
<path d="M26.6176 90.8224C30.4004 84.2717 55.0242 55.6848 55.0242 55.6848C55.0242 55.6848 42.5771 91.3028 38.7944 97.8535C35.0116 104.404 30.6885 105.599 27.3261 103.654C23.9636 101.714 22.8348 97.3732 26.6176 90.8224Z" fill="#2BC177"/>
<path d="M48.0652 100.663C48.0652 93.1038 55.0963 56.0328 55.0963 56.0328C55.0963 56.0328 62.1274 93.1038 62.1274 100.663C62.1274 108.223 58.9811 111.423 55.0963 111.423C51.2115 111.423 48.0652 108.229 48.0652 100.663Z" fill="#2BC177"/>
<path d="M71.5663 98.4599C67.7835 91.9091 55.3364 56.2911 55.3364 56.2911C55.3364 56.2911 79.9604 84.8839 83.7432 91.4287C87.526 97.9795 86.3972 102.321 83.0347 104.26C79.6723 106.2 75.3491 105.005 71.5663 98.4599Z" fill="#2BC177"/>
<path d="M90.8164 84.806C84.2656 81.0232 55.6787 56.3992 55.6787 56.3992C55.6787 56.3992 91.2967 68.8463 97.8475 72.6291C104.398 76.4118 105.593 80.735 103.648 84.0975C101.708 87.4599 97.3672 88.5887 90.8164 84.806Z" fill="#2BC177"/>
<path d="M100.663 63.3522C93.0978 63.3522 56.0269 56.321 56.0269 56.321C56.0269 56.321 93.0978 49.2899 100.663 49.2899C108.229 49.2899 111.423 52.4362 111.423 56.321C111.423 60.2058 108.229 63.3522 100.663 63.3522Z" fill="#2BC177"/>
<path d="M98.4598 39.8571C91.909 43.6398 56.291 56.0869 56.291 56.0869C56.291 56.0869 84.8839 31.4629 91.4287 27.6801C97.9795 23.8974 102.321 25.0262 104.26 28.3887C106.199 31.7511 105.005 36.0743 98.4598 39.8571Z" fill="#2BC177"/>
<path d="M84.7999 20.607C81.0171 27.1578 56.3931 55.7447 56.3931 55.7447C56.3931 55.7447 68.8402 20.1267 72.6229 13.5759C76.4057 7.0251 80.7289 5.83025 84.0914 7.77567C87.4538 9.71508 88.5826 14.0563 84.7999 20.607Z" fill="#2BC177"/>
</svg>
