<svg width="500" height="300" viewBox="0 0 500 300" fill="none" xmlns="http://www.w3.org/2000/svg">
  <rect x="10" y="10" width="480" height="280" rx="24" fill="#111827" stroke="#1F2937" stroke-width="2"/>
  
  <text x="40" y="55" fill="#9CA3AF" font-family="system-ui, sans-serif" font-size="14" font-weight="500" text-transform="uppercase">Total Revenue</text>
  <text x="40" y="95" fill="white" font-family="system-ui, sans-serif" font-size="36" font-weight="700">$128,450.00</text>
  
  <rect x="250" y="70" width="70" height="25" rx="12" fill="#10B981" fill-opacity="0.1"/>
  <text x="285" y="87" fill="#10B981" font-family="system-ui, sans-serif" font-size="12" font-weight="600" text-anchor="middle">+14.2%</text>

  <!-- Glowing Line Chart -->
  <path d="M40 240 L100 210 L160 220 L220 150 L280 180 L340 100 L400 120 L460 60" stroke="url(#lineGradient)" stroke-width="4" stroke-linecap="round" stroke-linejoin="round"/>
  <path d="M40 240 L100 210 L160 220 L220 150 L280 180 L340 100 L400 120 L460 60 L460 260 L40 260 Z" fill="url(#fillGradient)" opacity="0.3"/>
  
  <defs>
    <linearGradient id="lineGradient" x1="40" y1="240" x2="460" y2="60">
      <stop stop-color="#8B5CF6"/>
      <stop offset="1" stop-color="#3B82F6"/>
    </linearGradient>
    <linearGradient id="fillGradient" x1="40" y1="150" x2="40" y2="280" gradientUnits="userSpaceOnUse">
      <stop stop-color="#8B5CF6"/>
      <stop offset="1" stop-color="#111827" stop-opacity="0"/>
    </linearGradient>
  </defs>
</svg>
